<?xml version="1.0" encoding="UTF-8"?>
<svg width="130px" height="49px" viewBox="0 0 130 49" version="1.1" xmlns="http://www.w3.org/2000/svg" xmlns:xlink="http://www.w3.org/1999/xlink">
    <!-- Generator: Sketch 51.2 (57519) - http://www.bohemiancoding.com/sketch -->
    <title>logo</title>
    <desc>Created with Sketch.</desc>
    <defs></defs>
    <g id="Page-1" stroke="none" stroke-width="1" fill="none" fill-rule="evenodd">
        <g id="A4" transform="translate(-612.000000, -379.000000)" fill="#FFFFFF">
            <g id="logo" transform="translate(612.000000, 379.000000)">
                <path d="M62.8847656,48.3867188 L58.0507812,48.3867188 L58.0507812,16.0742188 L62.8847656,16.0742188 L62.8847656,18.3515625 C64.7897231,16.4466051 66.9524619,15.4941406 69.3730469,15.4941406 C72.2519675,15.4941406 74.6223865,16.5540259 76.484375,18.6738281 C78.3750095,20.7793074 79.3203125,23.4361819 79.3203125,26.6445312 C79.3203125,29.7812657 78.3821708,32.3951718 76.5058594,34.4863281 C74.6438709,36.5631614 72.2949361,37.6015625 69.4589844,37.6015625 C67.0097534,37.6015625 64.818369,36.6204525 62.8847656,34.6582031 L62.8847656,48.3867188 Z M74.3789062,26.6660156 C74.3789062,24.6607973 73.8346409,23.0280011 72.7460938,21.7675781 C71.6432237,20.4928322 70.2539146,19.8554688 68.578125,19.8554688 C66.8020745,19.8554688 65.3626357,20.471348 64.2597656,21.703125 C63.1568955,22.934902 62.6054688,24.5533754 62.6054688,26.5585938 C62.6054688,28.5208431 63.1568955,30.1393165 64.2597656,31.4140625 C65.3483127,32.6601625 66.7805901,33.2832031 68.5566406,33.2832031 C70.2324303,33.2832031 71.6145779,32.6530011 72.703125,31.3925781 C73.8203181,30.1321552 74.3789062,28.5566501 74.3789062,26.6660156 Z M89.2675781,16.0742188 L89.2675781,37 L84.4335938,37 L84.4335938,16.0742188 L89.2675781,16.0742188 Z M83.703125,7.37304688 C83.703125,6.52799057 84.0110646,5.79752912 84.6269531,5.18164062 C85.2428416,4.56575213 85.9804645,4.2578125 86.8398438,4.2578125 C87.713546,4.2578125 88.4583303,4.56575213 89.0742188,5.18164062 C89.6901072,5.78320613 89.9980469,6.52082896 89.9980469,7.39453125 C89.9980469,8.26823354 89.6901072,9.01301775 89.0742188,9.62890625 C88.4726532,10.2447947 87.7350304,10.5527344 86.8613281,10.5527344 C85.9876258,10.5527344 85.2428416,10.2447947 84.6269531,9.62890625 C84.0110646,9.01301775 83.703125,8.26107215 83.703125,7.37304688 Z M100.396484,20.5859375 L100.396484,37 L95.5410156,37 L95.5410156,20.5859375 L93.8222656,20.5859375 L93.8222656,16.0742188 L95.5410156,16.0742188 L95.5410156,7.99609375 C95.5410156,5.36066391 95.9993444,3.49870336 96.9160156,2.41015625 C98.1764386,0.891919492 100.009754,0.1328125 102.416016,0.1328125 C103.275395,0.1328125 104.356764,0.383461035 105.660156,0.884765625 L105.660156,5.82617188 L105.166016,5.56835938 C104.120437,5.03840881 103.261071,4.7734375 102.587891,4.7734375 C101.728511,4.7734375 101.148439,5.08137713 100.847656,5.69726562 C100.546873,6.29883113 100.396484,7.45897578 100.396484,9.17773438 L100.396484,16.0742188 L105.660156,16.0742188 L105.660156,20.5859375 L100.396484,20.5859375 Z M115.048828,33.1113281 L105.638672,16.0742188 L111.246094,16.0742188 L117.648438,28.1054688 L123.621094,16.0742188 L129.078125,16.0742188 L112.40625,48.3867188 L106.884766,48.3867188 L115.048828,33.1113281 Z" id="pify"></path>
                <polygon id="L" points="5.98046875 13.828125 5.98046875 42.2949219 19.734375 42.2949219 19.734375 47 0.974609375 47 0.974609375 13.828125"></polygon>
                <path d="M31.1032953,23.8187405 C33.774743,20.4603491 35.8609852,18.246897 37.3620844,17.1783179 C39.3974731,15.7026611 41.5473202,14.9648438 43.8116902,14.9648438 C46.4831379,14.9648438 48.9828122,15.9316389 51.310788,17.8652582 C53.6387639,19.7988775 54.8027344,22.9155197 54.8027344,27.2152784 C54.8027344,30.2174768 54.3702208,32.5772202 53.5051805,34.2945795 C52.6401403,36.0119387 51.2917155,37.392166 49.4598657,38.4353027 C47.6280158,39.4784395 45.7453095,40 43.8116902,40 C41.5473202,40 39.3974731,39.2749036 37.3620844,37.8246892 C35.8609852,36.7306677 33.774743,34.5044947 31.1032953,31.1461033 C27.6431345,35.4967467 23.9667687,37.6720358 20.0740877,37.6720358 C17.5044095,37.6720358 15.2973179,36.6988801 13.4527469,34.7525397 C11.6081758,32.8061992 10.6859042,30.3828508 10.6859042,27.4824219 C10.6859042,24.6074353 11.6081758,22.1904474 13.4527469,20.2313858 C15.2973179,18.2723241 17.5044095,17.292808 20.0740877,17.292808 C23.9667687,17.292808 27.6431345,19.4680971 31.1032953,23.8187405 Z M33.7365663,27.4442585 C35.9500516,30.878977 37.9726888,33.2323599 39.8045386,34.5044779 C40.9748872,35.3440757 42.285149,35.7638684 43.7353635,35.7638684 C45.6689828,35.7638684 47.2909088,35.051493 48.6011903,33.6267209 C49.9114718,32.2019488 50.5666028,30.1920326 50.5666028,27.5969119 C50.5666028,24.9000218 49.8987508,22.8392217 48.563027,21.4144496 C47.2273031,19.9896774 45.5672141,19.2773021 43.5827101,19.2773021 C42.3360345,19.2773021 41.1657035,19.6334898 40.0716821,20.3458758 C38.5960252,21.3381278 36.4843411,23.7042317 33.7365663,27.4442585 Z M28.4700243,27.4824219 C26.4346356,24.938186 24.806349,23.3035389 23.5851158,22.5784317 C22.3638825,21.8533244 21.1935516,21.4907762 20.0740877,21.4907762 C18.5984309,21.4907762 17.3708555,22.0123368 16.3913247,23.0554735 C15.4117938,24.0986102 14.9220358,25.536082 14.9220358,27.3679318 C14.9220358,29.1743393 15.4308753,30.6181716 16.4485697,31.6994718 C17.4662641,32.7807721 18.7002,33.3214141 20.1504144,33.3214141 C22.7200927,33.3214141 25.4932683,31.3751028 28.4700243,27.4824219 Z" id="∞"></path>
            </g>
        </g>
    </g>
</svg>